<?xml version="1.0" encoding="UTF-8"?>
<svg width="80px" height="80px" viewBox="0 0 80 80" version="1.1" xmlns="http://www.w3.org/2000/svg" xmlns:xlink="http://www.w3.org/1999/xlink">
    <!-- Generator: Sketch 59.1 (86144) - https://sketch.com -->
    <title>icons/50px/login/assistent</title>
    <desc>Created with Sketch.</desc>
    <g id="icons/50px/login/assistent" stroke="none" stroke-width="1" fill="none" fill-rule="evenodd">
        <path d="M40,50.4888889 C32.8031152,52.3631836 27.5093217,50.5323815 24.1186194,44.9964824 C24.2312003,52.3636281 30.4772435,58.302439 38.1658537,58.302439 L43.4341463,58.302439 C51.1930736,58.302439 57.4829268,52.2545032 57.4829268,44.7939962 C57.4829268,40.4052975 57.4829268,37.1137734 57.4829268,34.9194241 L57.4829268,27.9084428 C57.4829268,20.4479358 51.1930736,14.4 43.4341463,14.4 L38.1658537,14.4 C30.4069264,14.4 24.1170732,20.4479358 24.1170732,27.9084428 L24.1170732,44.7939962 C24.1170732,44.8098894 24.1170732,44.8257762 24.1170732,44.8416564 L24.1170732,44.8416564 M19.432216,69.7756098 C19.0462036,69.5840932 18.8561181,69.4407581 18.8619595,69.3456043 C10.3104876,62.7637816 4.8,52.4254125 4.8,40.8 C4.8,20.917749 20.917749,4.8 40.8,4.8 C60.682251,4.8 76.8,20.917749 76.8,40.8 C76.8,52.4254125 71.2895124,62.7637816 62.7380405,69.3456043 C62.7438819,69.4407581 62.5537964,69.5840932 62.167784,69.7756098 C56.1913067,74.190248 48.8004235,76.8 40.8,76.8 C32.7995765,76.8 25.4086933,74.190248 19.432216,69.7756098 Z M62.4,68.8 C62.1261976,63.3237548 57.6905375,58.5741805 51.2,56 L51.2,56 M30.4,56 C23.8995968,58.6220989 19.4767872,63.3550455 19.2,68.8 L19.2,68.8 M26.3535589,37.2292683 C28.4338605,30.4721227 32.066033,26.3645579 37.2500762,24.9065739 M22.3609756,35.4731707 C19.4513779,35.4731707 17.0926829,37.8318657 17.0926829,40.7414634 C17.0926829,43.6510611 19.4513779,46.0097561 22.3609756,46.0097561 L22.3609756,35.4731707 Z M59.2390244,46.0097561 C62.1486221,46.0097561 64.5073171,43.6510611 64.5073171,40.7414634 C64.5073171,37.8318657 62.1486221,35.4731707 59.2390244,35.4731707 L59.2390244,46.0097561 Z M25.8731707,40.1146532 C41.3536729,37.247561 47.8412755,32.1581936 48.914234,24.9065739 C49.3967469,31.9608872 53.4457297,35.4863186 57.4829268,35.4228454 M24.1171588,44.8416564 L24,44.8 C24.0392776,44.8660047 24.0788174,44.9314988 24.1186194,44.9964824 C24.1178318,44.9449432 24.1173444,44.893334 24.1171588,44.8416564 L24.1171588,44.8416564 Z" id="Shape" stroke="#525252" stroke-width="3" stroke-linecap="round" stroke-linejoin="round"></path>
        <path d="M37.0148804,49.9000517 L40.3003643,46.6143396 C40.4306396,46.4774706 40.6113277,46.4 40.8002779,46.4 C40.989228,46.4 41.1699161,46.4774706 41.3001914,46.6143396 L44.5856753,49.9000517 C44.7225347,50.030336 44.8,50.2110368 44.8,50.4 C44.8,50.5889632 44.7225347,50.769664 44.5856753,50.8999483 L41.3001914,54.1856604 C41.1699161,54.3225294 40.989228,54.4 40.8002779,54.4 C40.6113277,54.4 40.4306396,54.3225294 40.3003643,54.1856604 L37.0148804,51.0425655 C36.7283732,50.7156205 36.7283732,50.2269968 37.0148804,49.9000517 Z" id="Combined-Shape" fill="#525252"></path>
    </g>
</svg>