<?xml version="1.0" encoding="UTF-8"?>
<svg width="80px" height="80px" viewBox="0 0 80 80" version="1.1" xmlns="http://www.w3.org/2000/svg" xmlns:xlink="http://www.w3.org/1999/xlink">
    <!-- Generator: Sketch 59.1 (86144) - https://sketch.com -->
    <title>icons/50px/login/Globe</title>
    <desc>Created with Sketch.</desc>
    <g id="icons/50px/login/Globe" stroke="none" stroke-width="1" fill="none" fill-rule="evenodd" stroke-linecap="round" stroke-linejoin="round">
        <path d="M52.1269066,20.7356592 C57.3430342,23.9651966 61.0992563,29.3156369 62.1823102,35.5777718 M73.5237028,27.6074699 C83.4680458,68.0347496 47.0961776,84.6856758 19.0416428,65.8954016 M29.7770306,58.350977 C23.9853818,55.0819001 19.8335024,49.2628957 18.8570438,42.4244839 M7.648151,49.7316289 C-0.874512072,8.9830835 36.0582567,-6.39258111 63.4377316,13.362064 L63.3936751,13.3907847 L64.5252694,14.1691656 M67.9597492,10.8506199 L69.1764861,18.2838194 L61.1673274,17.4137571 M64.4298569,14.2613574 L63.3295214,13.4326069 L63.3295214,13.4326069 M40.5039555,28.3127313 L40.5039555,30.0269992 L40.5039555,38.2241717 L40.5039555,30.0269992 L40.5039555,38.2241717 L40.5039555,46.4213442 L46.7523786,46.4213442 M53.0723226,41.9799266 C53.1337174,41.1071513 53.165319,40.2185111 53.165319,39.3171281 C53.165319,35.9952639 52.7361243,32.8464651 51.9682491,30.0269992 L40.5039555,30.0269992 L51.9682491,30.0269992 C51.2208174,27.2825972 50.1524989,24.8502256 48.8467692,22.8740006 M37.8743313,30.0269992 L40.5039555,30.0269992 L40.5039555,28.3127313 L40.5039555,28.3127313 M28.0371915,36.4398902 C27.975086,37.3814138 27.9430412,38.3418115 27.9430412,39.3171281 C27.9430412,41.8040575 28.1513912,44.1939867 28.5351957,46.4213442 M38.9092489,30.0269992 L37.8743313,30.0269992 M17.9576304,65.0943701 L19.6141708,66.3389792 C19.2513878,66.0816562 18.6182734,65.6229803 17.9331847,65.1196989 M14.6103219,68.5626045 L13.1340416,61.1762548 L21.1687878,61.7672054 M40.5541801,50.7772038 L40.5541801,46.4213442 L46.7523786,46.4213442 M40.5541801,50.7772038 L40.5541801,46.4213442 L29.039662,46.4213442 C29.7790878,50.2874814 31.105241,53.6638178 32.8271813,56.2074464 M31.2329035,46.4213442 L20.2820671,46.4213442 L31.2329035,46.4213442 L31.2329035,46.4213442 Z M49.5060173,30.0269992 L60.3087254,30.0269992 L49.5060173,30.0269992 Z M46.7523786,46.4213442 L46.7523786,46.4213442 L52.0686982,46.4213442 C50.4267476,55.0063921 45.8916718,61.1762548 40.5541801,61.1762548 C37.6203413,61.1762548 34.9289387,59.312136 32.8271813,56.2074464 M29.7770306,58.350977 C32.9634401,60.1495352 36.6461922,61.1762548 40.5695514,61.1762548 C52.68249,61.1762548 62.5019669,51.3895904 62.5019669,39.3171281 C62.5019669,38.0422402 62.3924603,36.7928436 62.1823102,35.5777718 M53.0723226,41.9799266 C52.9643281,43.5151516 52.7641495,45.0012884 52.4816293,46.4213442 L46.7523786,46.4213442 L46.7523786,46.4213442 M40.5541801,50.7772038 L40.5541801,50.7772038 L40.5541801,61.1762548 L40.5541801,50.7772038 Z M49.9061994,46.4213442 L60.8570358,46.4213442 L49.9061994,46.4213442 Z M17.9576304,65.0943701 L15.2453767,63.0901487 C15.7739235,63.5191663 16.9113655,64.3690477 17.9331847,65.1196989 L17.9576304,65.0943701 Z M40.5039555,28.3127313 L40.5039555,28.3127313 L40.5039555,17.4580013 L40.5039555,28.3127313 Z M37.8743313,30.0269992 L29.039662,30.0269992 C31.0624319,22.5998402 35.435386,17.4580013 40.5039555,17.4580013 C43.6996431,17.4580013 46.6188103,19.5019795 48.8467692,22.8740006 M52.1269066,20.7356592 C48.7710379,18.6578911 44.8108891,17.4580013 40.5695514,17.4580013 C28.4566128,17.4580013 18.6371359,27.2446657 18.6371359,39.3171281 C18.6371359,40.3720347 18.7121124,41.4094882 18.8570438,42.4244839 M28.0371915,36.4398902 C28.1866131,34.1746463 28.5100412,32.0186552 28.9798424,30.0269992 L37.8743313,30.0269992 L37.8743313,30.0269992 L37.8743313,30.0269992 M31.6330856,30.0269992 L20.8303775,30.0269992 L31.6330856,30.0269992 Z M63.3295214,13.4326069 L63.3936751,13.3907847 L62.013628,12.4415025 L63.3295214,13.4326069 Z M64.4298569,14.2613574 L67.133455,16.297653 C66.2761714,15.5507226 65.4061476,14.8413383 64.5252694,14.1691656 L64.4298569,14.2613574 Z" id="Shape" stroke="#525252" stroke-width="3"></path>
    </g>
</svg>